<svg width="154" height="92" viewBox="0 0 154 92" fill="none" xmlns="http://www.w3.org/2000/svg">
<path d="M25.8721 21.0865L62.9079 92.0063H83.9869L35.722 0.20459L25.8721 21.0865Z" fill="white"/>
<path d="M25.8721 21.0865L62.9079 92.0063H83.9869L35.722 0.20459L25.8721 21.0865Z" fill="white"/>
<path d="M4.98944 53.394H4.59542L0.0644531 62.259H1.93591L2.62542 60.88H6.95943L7.64894 62.259H9.5204L4.98944 53.394ZM3.31493 59.4025L4.79243 56.4475L6.26992 59.4025H3.31493Z" fill="white"/>
<path d="M16.5147 56.4483C16.5147 54.3798 15.0371 53.5918 13.2642 53.5918H10.0137V62.2598H11.7867V59.2063H12.9687L14.7416 62.2598H16.8102L14.8402 59.0093C15.8252 58.6153 16.5147 57.7288 16.5147 56.4483ZM13.2642 57.7288H11.8852V55.1678H13.2642C14.1506 55.1678 14.7416 55.4633 14.7416 56.4483C14.6431 57.3348 14.0521 57.7288 13.2642 57.7288Z" fill="white"/>
<path d="M19.6646 58.6143H23.2106V57.1368H19.6646V55.1668H23.6046V53.5908H17.8916V62.2588H23.8016V60.6828H19.6646V58.6143Z" fill="white"/>
<path d="M30.8968 57.2357C30.8968 57.8267 30.9953 58.8117 30.9953 58.8117C30.9953 58.8117 30.4043 58.0236 30.0103 57.6296L25.5778 53.4927H25.3809V62.2591H27.0553V58.6146C27.0553 58.0236 26.9568 57.0387 26.9568 57.0387C26.9568 57.0387 27.5478 57.8267 28.0403 58.2207L32.4728 62.3577H32.6698V53.5912H30.9953V57.2357H30.8968Z" fill="white"/>
<path d="M37.9865 53.394H37.5925L33.0615 62.259H34.933L35.6225 60.88H39.9565L40.646 62.259H42.5175L37.9865 53.394ZM36.312 59.4025L37.7895 56.4475L39.267 59.4025H36.312Z" fill="white"/>
<path d="M123.29 60.4862C122.798 61.1757 122.01 61.5696 121.123 61.5696C119.941 61.5696 119.35 60.9787 119.35 59.9937C119.35 58.9102 120.04 58.3192 121.123 57.8267L123.29 60.4862ZM121.32 56.7432L121.123 56.4477C120.828 56.0537 120.631 55.6597 120.631 55.2657C120.631 54.6747 121.025 54.2807 121.616 54.2807C122.207 54.2807 122.601 54.6747 122.601 55.2657C122.601 55.8567 122.108 56.3492 121.32 56.7432ZM121.813 57.3342C122.798 56.7432 123.389 56.1522 123.389 55.2657C123.389 54.2807 122.699 53.4927 121.517 53.4927C120.335 53.4927 119.646 54.2807 119.646 55.2657C119.646 55.8567 119.843 56.4477 120.335 57.0387L120.532 57.2357C119.252 57.9252 118.267 58.6146 118.267 60.0921C118.267 61.5696 119.35 62.4562 121.025 62.4562C122.108 62.4562 123.093 62.0621 123.783 61.2741L124.669 62.3577H125.753L124.177 60.4862C124.571 59.6982 124.866 58.8116 124.866 57.6296H123.98C123.98 58.4176 123.881 59.1071 123.586 59.6981L121.813 57.3342ZM112.652 62.3577C114.228 62.3577 115.312 61.4711 115.312 60.0921C115.312 58.8116 114.524 58.1222 113.145 57.4327L112.455 57.1371C111.47 56.6446 111.076 56.3492 111.076 55.5612C111.076 54.7732 111.569 54.2807 112.455 54.2807C113.243 54.2807 113.736 54.6747 114.031 55.2657L114.819 54.7732C114.327 53.9852 113.637 53.4927 112.455 53.4927C111.175 53.4927 110.19 54.2807 110.19 55.5612C110.19 56.7432 110.879 57.3342 112.061 57.9252L112.751 58.2207C113.834 58.7131 114.425 59.1072 114.425 59.9937C114.425 60.8802 113.637 61.4712 112.652 61.4712C111.47 61.4712 110.781 60.8801 110.387 60.0921L109.599 60.4862C110.091 61.4712 110.978 62.3577 112.652 62.3577ZM103.984 62.2591H109.008V61.4712H104.871V53.5912H103.984V62.2591ZM96.8921 62.2591H102.408V61.4712H97.8771V58.3192H101.817V57.5312H97.8771V54.3792H102.211V53.5912H96.8921V62.2591ZM91.9671 62.2591H92.8536V54.3792H95.5131V53.5912H89.2091V54.3792H91.8686V62.2591H91.9671ZM84.4812 61.5696C82.4127 61.5696 80.9351 59.9937 80.9351 57.9252C80.9351 55.8567 82.4127 54.2807 84.4812 54.2807C86.5497 54.2807 88.0271 55.8567 88.0271 57.9252C88.0271 59.9937 86.4512 61.5696 84.4812 61.5696ZM84.4812 62.3577C86.9437 62.3577 88.9136 60.4862 88.9136 57.9252C88.9136 55.3642 86.9437 53.4927 84.4812 53.4927C82.0187 53.4927 80.0487 55.3642 80.0487 57.9252C80.0487 60.4862 82.0187 62.3577 84.4812 62.3577ZM71.9717 62.2591H72.8581V58.4177H77.4876V62.2591H78.3742V53.5912H77.4876V57.6296H72.8581V53.5912H71.9717V62.2591Z" fill="white"/>
<path d="M150.575 74.5725C152.151 74.5725 153.235 73.686 153.235 72.307C153.235 71.0265 152.447 70.2385 151.068 69.6475L150.378 69.352C149.393 68.8595 148.999 68.564 148.999 67.776C148.999 66.988 149.492 66.4955 150.378 66.4955C151.166 66.4955 151.659 66.8895 151.954 67.4805L152.742 66.988C152.25 66.2 151.56 65.7075 150.378 65.7075C149.098 65.7075 148.113 66.4955 148.113 67.776C148.113 68.958 148.802 69.549 149.984 70.14L150.674 70.4355C151.757 70.928 152.348 71.322 152.348 72.2085C152.348 73.095 151.56 73.686 150.575 73.686C149.393 73.686 148.704 73.095 148.31 72.307L147.522 72.701C148.014 73.7845 148.901 74.5725 150.575 74.5725ZM143.582 74.474H144.468V66.594H147.128V65.806H140.824V66.594H143.483V74.474H143.582ZM139.346 74.5725H139.543V65.806H138.657V71.716C138.657 72.11 138.755 72.701 138.755 72.701C138.755 72.6025 138.361 72.2085 138.164 71.913L132.944 65.806H132.747V74.5725H133.633V68.6625C133.633 68.2685 133.535 67.776 133.535 67.6775C133.535 67.776 133.929 68.17 134.126 68.4655L139.346 74.5725ZM125.753 74.474H131.269V73.686H126.738V70.534H130.678V69.746H126.738V66.594H131.072V65.806H125.753V74.474ZM115.312 74.474H116.199V68.761C116.199 68.367 116.1 67.776 116.1 67.776C116.1 67.8745 116.494 68.367 116.691 68.6625L119.252 72.0115H119.449L122.109 68.6625C122.404 68.367 122.7 67.776 122.7 67.776C122.7 67.776 122.7 68.367 122.7 68.761V74.474H123.586V65.7075H123.488L119.449 70.731L115.411 65.7075H115.312V74.474ZM110.387 74.474H111.274V66.594H113.933V65.806H107.629V66.594H110.289V74.474H110.387ZM102.113 70.2385V66.594H103.788C105.167 66.594 105.955 67.185 105.955 68.4655C105.955 69.6475 105.167 70.337 103.788 70.337H102.113V70.2385ZM101.227 74.474H102.113V71.0265H103.689C103.788 71.0265 103.985 71.0265 104.083 71.0265L106.053 74.474H107.137L104.97 70.928C106.053 70.534 106.841 69.746 106.841 68.4655C106.841 66.6925 105.561 65.806 103.788 65.806H101.128V74.474H101.227ZM92.5588 74.474H93.4453L94.2333 72.504H98.2719L99.0598 74.474H100.045L96.4003 65.7075H96.2033L92.5588 74.474ZM94.5288 71.716L95.9078 68.367C96.1048 67.973 96.2034 67.382 96.3019 67.382C96.3019 67.382 96.4989 67.973 96.5974 68.4655L97.9763 71.8145H94.5288V71.716ZM87.9294 70.337V66.594H89.5054C90.9829 66.594 91.6724 67.185 91.6724 68.4655C91.6724 69.746 90.8844 70.337 89.5054 70.337H87.9294ZM86.9444 74.474H87.8309V71.125H89.5054C91.3769 71.125 92.5588 70.14 92.5588 68.4655C92.5588 66.6925 91.2784 65.806 89.5054 65.806H86.9444V74.474ZM78.2764 74.474H79.1629L79.9509 72.504H83.9894L84.7774 74.474H85.7624L82.1179 65.7075H81.9209L78.2764 74.474ZM80.2464 71.716L81.6254 68.367C81.8224 67.973 81.9209 67.382 82.0194 67.382C82.0194 67.382 82.2164 67.973 82.3149 68.4655L83.6939 71.8145H80.2464V71.716Z" fill="white"/>
</svg>
