<svg width="100%" height="100%" preserveAspectRatio="xMidYMid meet" viewBox="0 0 205 36" fill="none" xmlns="http://www.w3.org/2000/svg">
<path d="M154.879 16.0796L147.389 19.2096C147.343 18.5909 147.421 17.9693 147.618 17.3812C147.815 16.793 148.128 16.2502 148.538 15.7845C148.948 15.3188 149.446 14.9396 150.005 14.6692C150.563 14.3987 151.17 14.2425 151.789 14.2096C152.425 14.1828 153.055 14.3403 153.603 14.6632C154.151 14.9861 154.594 15.4606 154.879 16.0296M159.109 24.1496L156.249 22.2496C155.825 22.9554 155.226 23.5393 154.509 23.9442C153.792 24.3491 152.983 24.5611 152.159 24.5596C151.299 24.5922 150.45 24.3656 149.72 23.9091C148.991 23.4525 148.416 22.7872 148.069 21.9996L159.289 17.3296L158.919 16.3296C158.239 14.4696 156.059 10.9796 151.749 10.9796C147.439 10.9796 143.999 14.4896 143.999 19.4796C143.961 20.58 144.147 21.6767 144.543 22.7039C144.94 23.731 145.54 24.6673 146.308 25.4566C147.076 26.2458 147.995 26.8717 149.011 27.2967C150.027 27.7217 151.118 27.937 152.219 27.9296C153.59 27.9292 154.939 27.5881 156.145 26.937C157.351 26.2859 158.377 25.3452 159.129 24.1996M141.729 27.4296H137.999V2.53957H141.679L141.729 27.4296ZM127.499 14.3496C130.039 14.3496 131.989 16.5296 131.989 19.5296C131.989 22.5296 130.039 24.6096 127.499 24.6096C126.856 24.5905 126.223 24.443 125.638 24.176C125.052 23.9089 124.526 23.5275 124.09 23.0543C123.654 22.5811 123.317 22.0255 123.099 21.4202C122.881 20.8149 122.786 20.1721 122.819 19.5296C122.869 16.5296 124.959 14.3496 127.499 14.3496ZM135.259 26.7496V11.5296H131.809V12.8996H131.679C131.122 12.2869 130.44 11.8003 129.68 11.4727C128.919 11.145 128.097 10.9837 127.269 10.9996C125.116 11.1279 123.094 12.0736 121.615 13.6432C120.136 15.2129 119.313 17.288 119.313 19.4446C119.313 21.6011 120.136 23.6763 121.615 25.2459C123.094 26.8156 125.116 27.7612 127.269 27.8896C128.098 27.9216 128.924 27.7687 129.687 27.4418C130.45 27.1149 131.131 26.6222 131.679 25.9996H131.809V27.1996C131.809 30.4696 130.089 32.1996 127.319 32.1996C126.395 32.1788 125.499 31.882 124.745 31.3473C123.991 30.8127 123.414 30.0647 123.089 29.1996L119.869 30.5596C120.469 32.0422 121.499 33.311 122.827 34.2023C124.155 35.0935 125.72 35.5663 127.319 35.5596C131.629 35.5096 135.259 32.9696 135.259 26.7496ZM113.559 19.4796C113.619 18.8286 113.543 18.1723 113.335 17.5524C113.128 16.9326 112.793 16.363 112.352 15.8799C111.912 15.3968 111.376 15.0109 110.778 14.7469C110.179 14.4828 109.533 14.3464 108.879 14.3464C108.225 14.3464 107.579 14.4828 106.981 14.7469C106.383 15.0109 105.846 15.3968 105.406 15.8799C104.966 16.363 104.631 16.9326 104.423 17.5524C104.215 18.1723 104.139 18.8286 104.199 19.4796C104.139 20.1305 104.215 20.7869 104.423 21.4067C104.631 22.0265 104.966 22.5962 105.406 23.0793C105.846 23.5623 106.383 23.9482 106.981 24.2123C107.579 24.4763 108.225 24.6127 108.879 24.6127C109.533 24.6127 110.179 24.4763 110.778 24.2123C111.376 23.9482 111.912 23.5623 112.352 23.0793C112.793 22.5962 113.128 22.0265 113.335 21.4067C113.543 20.7869 113.619 20.1305 113.559 19.4796ZM117.189 19.4796C117.228 20.5891 117.043 21.6951 116.645 22.7316C116.247 23.768 115.644 24.7137 114.873 25.5123C114.101 26.3109 113.177 26.946 112.155 27.3798C111.133 27.8136 110.034 28.0371 108.924 28.0371C107.814 28.0371 106.715 27.8136 105.693 27.3798C104.671 26.946 103.747 26.3109 102.976 25.5123C102.204 24.7137 101.602 23.768 101.204 22.7316C100.806 21.6951 100.621 20.5891 100.659 19.4796C100.621 18.37 100.806 17.264 101.204 16.2276C101.602 15.1911 102.204 14.2454 102.976 13.4468C103.747 12.6482 104.671 12.0131 105.693 11.5794C106.715 11.1456 107.814 10.922 108.924 10.922C110.034 10.922 111.133 11.1456 112.155 11.5794C113.177 12.0131 114.101 12.6482 114.873 13.4468C115.644 14.2454 116.247 15.1911 116.645 16.2276C117.043 17.264 117.228 18.37 117.189 19.4796ZM90.3492 14.3496C90.9947 14.371 91.6293 14.5219 92.2153 14.7934C92.8014 15.0648 93.3268 15.4513 93.7606 15.9298C94.1943 16.4084 94.5275 16.9692 94.7403 17.579C94.953 18.1887 95.0411 18.8351 94.9992 19.4796C95.0595 20.1305 94.9832 20.7869 94.7754 21.4067C94.5676 22.0265 94.2328 22.5962 93.7924 23.0793C93.3519 23.5623 92.8155 23.9482 92.2175 24.2123C91.6195 24.4763 90.9729 24.6127 90.3192 24.6127C89.6655 24.6127 89.0189 24.4763 88.4209 24.2123C87.8229 23.9482 87.2865 23.5623 86.846 23.0793C86.4056 22.5962 86.0708 22.0265 85.863 21.4067C85.6552 20.7869 85.579 20.1305 85.6392 19.4796C85.6015 18.8336 85.6934 18.1866 85.9096 17.5766C86.1258 16.9667 86.4618 16.4062 86.8979 15.9282C87.3341 15.4501 87.8614 15.0641 88.449 14.793C89.0366 14.5219 89.6725 14.3711 90.3192 14.3496M90.3192 27.9296C91.4209 27.9312 92.5119 27.7124 93.5278 27.2861C94.5437 26.8597 95.464 26.2345 96.2346 25.4471C97.0052 24.6597 97.6106 23.7261 98.0149 22.7012C98.4193 21.6764 98.6145 20.581 98.5892 19.4796C98.6278 18.37 98.4426 17.264 98.0446 16.2276C97.6466 15.1911 97.0441 14.2454 96.2728 13.4468C95.5015 12.6482 94.5773 12.0131 93.5553 11.5794C92.5333 11.1456 91.4345 10.922 90.3242 10.922C89.214 10.922 88.1151 11.1456 87.0931 11.5794C86.0711 12.0131 85.1469 12.6482 84.3756 13.4468C83.6044 14.2454 83.0018 15.1911 82.6038 16.2276C82.2058 17.264 82.0206 18.37 82.0592 19.4796C82.0325 20.5805 82.2265 21.6757 82.6298 22.7005C83.033 23.7253 83.6374 24.659 84.4072 25.4465C85.177 26.234 86.0967 26.8595 87.1121 27.2859C88.1275 27.7124 89.2179 27.9312 90.3192 27.9296ZM192.999 27.4296H196.089L204.489 4.21957H201.199L194.659 23.0696H194.529L188.219 4.21957H184.899L192.999 27.4296ZM176.559 27.4296V7.07957H182.999V4.21957H167.199V7.07957H173.649V27.4296H176.559ZM67.8892 27.9296C64.4017 27.9061 61.0634 26.5116 58.5955 24.0474C56.1275 21.5832 54.728 18.247 54.6992 14.7596C54.7281 11.267 56.1318 7.92633 58.6062 5.46128C61.0806 2.99623 64.4265 1.60523 67.9192 1.58957C69.5734 1.56239 71.2163 1.86596 72.7515 2.48244C74.2867 3.09893 75.6832 4.01592 76.8592 5.17957L74.3192 7.71957C73.4754 6.88785 72.4757 6.23091 71.3774 5.78646C70.2792 5.342 69.104 5.11877 67.9192 5.12957C66.6759 5.13338 65.4457 5.38407 64.3001 5.86709C63.1544 6.3501 62.1161 7.05583 61.2453 7.94332C60.3746 8.83081 59.6888 9.88239 59.2277 11.037C58.7666 12.1917 58.5393 13.4264 58.5592 14.6696C58.5353 15.9133 58.7597 17.1494 59.2195 18.3053C59.6793 19.4612 60.3651 20.5137 61.2368 21.4013C62.1085 22.2888 63.1485 22.9934 64.296 23.4739C65.4434 23.9544 66.6752 24.2011 67.9192 24.1996C69.1394 24.2493 70.3562 24.0407 71.4902 23.5875C72.6241 23.1343 73.6495 22.4466 74.4992 21.5696C75.6344 20.3061 76.3077 18.6951 76.4092 16.9996H67.8692V13.4396H79.8692C80.006 14.1747 80.0663 14.922 80.0492 15.6696C80.1437 18.7619 79.0403 21.7713 76.9692 24.0696C75.8589 25.352 74.472 26.3657 72.913 27.0343C71.354 27.7029 69.6636 28.009 67.9692 27.9296" fill="white"/>
<path d="M35.2702 1.33346e-05H11.4302C10.9347 -0.00130612 10.4439 0.0953072 9.98588 0.2843C9.52789 0.473293 9.11177 0.750939 8.76143 1.10128C8.41109 1.45162 8.13345 1.86774 7.94446 2.32574C7.75546 2.78373 7.65885 3.27456 7.66017 3.77001V7.54001H36.7202C37.2156 7.53869 37.7064 7.63531 38.1644 7.8243C38.6224 8.01329 39.0386 8.29094 39.3889 8.64128C39.7392 8.99162 40.0169 9.40774 40.2059 9.86574C40.3949 10.3237 40.4915 10.8146 40.4902 11.31V5.22001C40.4902 3.83558 39.9402 2.50786 38.9613 1.52892C37.9823 0.549976 36.6546 1.33346e-05 35.2702 1.33346e-05Z" fill="#557DBF"/>
<path d="M5.39017 1.33346e-05C3.99942 0.0105696 2.66922 0.570457 1.68954 1.55763C0.709861 2.54481 0.16013 3.87923 0.16017 5.27001V18.27C0.15885 18.7655 0.255463 19.2563 0.444456 19.7143C0.633449 20.1723 0.911087 20.5884 1.26143 20.9387C1.61177 21.2891 2.02789 21.5667 2.48588 21.7557C2.94388 21.9447 3.43471 22.0413 3.93016 22.04H7.70016V3.77001C7.69884 3.27456 7.79546 2.78373 7.98445 2.32574C8.17344 1.86774 8.4511 1.45162 8.80144 1.10128C9.15178 0.750939 9.5679 0.473293 10.0259 0.2843C10.4839 0.0953072 10.9747 -0.00130612 11.4702 1.33346e-05H5.39017Z" fill="#32A852"/>
<path d="M5.39017 29.6496H29.2302C29.7256 29.6509 30.2165 29.5543 30.6745 29.3653C31.1324 29.1763 31.5486 28.8987 31.8989 28.5483C32.2492 28.198 32.5269 27.7819 32.7159 27.3239C32.9049 26.8659 33.0015 26.3751 33.0002 25.8796V22.1196H3.93016C3.43471 22.1209 2.94388 22.0243 2.48588 21.8353C2.02789 21.6463 1.61177 21.3687 1.26143 21.0183C0.911087 20.668 0.633449 20.2519 0.444456 19.7939C0.255463 19.3359 0.15885 18.8451 0.16017 18.3496V24.4796C0.178548 25.8554 0.737347 27.1688 1.71589 28.1362C2.69444 29.1035 4.01421 29.6471 5.39017 29.6496Z" fill="#F8BC16"/>
<path d="M35.2704 29.6501C36.6585 29.6396 37.9862 29.0807 38.964 28.0954C39.9418 27.1101 40.4905 25.7783 40.4904 24.3901V11.3901C40.4918 10.8947 40.3952 10.4038 40.2062 9.94585C40.0172 9.48786 39.7395 9.07174 39.3892 8.7214C39.0389 8.37106 38.6227 8.09341 38.1647 7.90442C37.7067 7.71542 37.2159 7.61881 36.7205 7.62013H33.0005V25.9201C33.0018 26.4156 32.9051 26.9064 32.7162 27.3644C32.5272 27.8224 32.2495 28.2385 31.8992 28.5889C31.5489 28.9392 31.1327 29.2169 30.6747 29.4058C30.2168 29.5948 29.7259 29.6915 29.2305 29.6901L35.2704 29.6501Z" fill="#EA4335"/>
</svg>
