<svg width="74" height="17" viewBox="0 0 74 17" fill="none" xmlns="http://www.w3.org/2000/svg">
<path d="M73.9989 16.3857V0.425335C74.0019 0.371154 73.9941 0.316925 73.976 0.265879C73.9579 0.214834 73.9298 0.168033 73.8933 0.128303C73.8569 0.0885733 73.813 0.0567264 73.7642 0.0346787C73.7153 0.012631 73.6626 0.000832761 73.6092 0H72.4892C72.4356 0.00052821 72.3826 0.0120997 72.3335 0.0340124C72.2844 0.055925 72.2402 0.087736 72.2036 0.127498C72.1669 0.167259 72.1386 0.214156 72.1203 0.265352C72.102 0.316548 72.0942 0.370965 72.0972 0.425335V16.3857C72.0933 16.4417 72.1003 16.498 72.1179 16.5513C72.1355 16.6046 72.1633 16.6538 72.1998 16.6961C72.2362 16.7384 72.2806 16.773 72.3303 16.7978C72.3799 16.8226 72.434 16.8371 72.4892 16.8406H73.6092C73.6642 16.8368 73.718 16.8221 73.7674 16.7972C73.8168 16.7722 73.8609 16.7376 73.8971 16.6954C73.9334 16.6531 73.961 16.604 73.9785 16.5508C73.9959 16.4977 74.0029 16.4416 73.9989 16.3857ZM68.7104 16.3857V0.425335C68.7131 0.371228 68.7051 0.317118 68.6869 0.266213C68.6686 0.215307 68.6405 0.168632 68.6041 0.128969C68.5678 0.0893065 68.5239 0.0574723 68.4753 0.0353173C68.4266 0.0131623 68.374 0.00114755 68.3207 0H67.2007C67.1472 0.000832761 67.0945 0.012631 67.0457 0.0346787C66.9969 0.0567264 66.9529 0.0885733 66.9165 0.128303C66.8801 0.168033 66.852 0.214834 66.8338 0.265879C66.8157 0.316925 66.8079 0.371154 66.8109 0.425335V16.3857C66.807 16.4416 66.8139 16.4977 66.8314 16.5508C66.8489 16.604 66.8765 16.6531 66.9127 16.6954C66.9489 16.7376 66.993 16.7722 67.0424 16.7972C67.0918 16.8221 67.1456 16.8368 67.2007 16.8406H68.3207C68.3757 16.8368 68.4295 16.8221 68.4789 16.7972C68.5283 16.7722 68.5724 16.7376 68.6086 16.6954C68.6449 16.6531 68.6725 16.604 68.6899 16.5508C68.7074 16.4977 68.7144 16.4416 68.7104 16.3857ZM62.0555 9.81002H56.3168V9.60986C56.3168 7.19204 57.3583 6.09574 59.2287 6.09574C61.1371 6.09574 62.069 7.08059 62.069 9.60986L62.0555 9.81002ZM63.9841 10.8176V9.60986C63.9841 6.42553 62.3803 4.37846 59.2153 4.37846C56.1152 4.37846 54.4016 6.42553 54.4016 9.60986V11.6296C54.4016 15.792 56.8297 16.9998 59.3295 16.9998C60.6327 17.0059 61.9332 16.8786 63.2113 16.6199C63.5585 16.554 63.6436 16.3925 63.6436 16.1059V15.3439C63.644 15.2992 63.6349 15.255 63.6171 15.2142C63.5992 15.1733 63.573 15.1368 63.5401 15.1071C63.5072 15.0774 63.4685 15.0552 63.4265 15.0419C63.3845 15.0286 63.3401 15.0245 63.2965 15.03H63.1889C61.9093 15.1993 60.62 15.2822 59.3295 15.278C57.3359 15.278 56.3168 14.2931 56.3168 11.6387V11.3249H63.5787C63.8385 11.3249 63.9908 11.1224 63.9908 10.8313M52.7911 16.5176V15.7238C52.7911 15.4963 52.6388 15.4122 52.3431 15.4122H51.1291C50.2622 15.4122 49.9598 15.2325 49.9598 14.002V6.17078H52.2849C52.4013 6.16723 52.5119 6.11775 52.593 6.03282C52.6741 5.94789 52.7195 5.8342 52.7194 5.71588V4.9562C52.7195 4.83788 52.6741 4.72419 52.593 4.63926C52.5119 4.55433 52.4013 4.50484 52.2849 4.50129H49.9374V2.07664C49.9408 2.03002 49.935 1.9832 49.9205 1.93884C49.9059 1.89449 49.8829 1.85347 49.8528 1.81818C49.8226 1.78288 49.7858 1.75399 49.7446 1.73316C49.7034 1.71233 49.6585 1.69996 49.6126 1.69679H49.5476L48.4277 1.87421C48.3192 1.88864 48.2197 1.94287 48.1479 2.02666C48.0761 2.11046 48.037 2.21804 48.0379 2.32911V4.52403H45.9346C45.8809 4.52016 45.8271 4.52782 45.7765 4.54649C45.726 4.56517 45.6798 4.59445 45.6412 4.63243C45.6025 4.67041 45.5721 4.71623 45.5521 4.76692C45.532 4.81761 45.5227 4.87203 45.5247 4.92663V5.53163C45.5247 5.58567 45.5354 5.63916 45.5561 5.68892C45.5769 5.73868 45.6073 5.78368 45.6455 5.82125C45.6838 5.85882 45.7291 5.88819 45.7788 5.9076C45.8284 5.92701 45.8814 5.93606 45.9346 5.93423L48.029 6.17078V13.9838C48.029 16.4448 48.9832 16.9816 50.9767 16.9816C51.4484 16.9776 51.9191 16.9404 52.3857 16.8702C52.6679 16.8269 52.7777 16.6927 52.7777 16.4903M44.3868 5.67948V4.76967C44.3868 4.50128 44.2367 4.36707 43.9388 4.36707C42.8324 4.38115 41.76 4.75772 40.8813 5.44067V4.97211C40.8853 4.91457 40.8776 4.85683 40.8589 4.80238C40.8402 4.74792 40.8108 4.69788 40.7725 4.65533C40.7341 4.61278 40.6877 4.5786 40.6359 4.55485C40.5841 4.5311 40.5282 4.51829 40.4714 4.5172H39.4522C39.3952 4.51799 39.339 4.53057 39.287 4.55418C39.235 4.5778 39.1882 4.61195 39.1497 4.65453C39.1111 4.69711 39.0814 4.74724 39.0626 4.80185C39.0438 4.85646 39.0361 4.91438 39.0401 4.97211V16.388C39.0364 16.5035 39.0775 16.6159 39.1546 16.7009C39.2317 16.786 39.3385 16.837 39.4522 16.8429H40.5139C40.63 16.8387 40.74 16.789 40.8206 16.7041C40.9013 16.6193 40.9463 16.5059 40.9463 16.388V7.00782C42.0304 6.32546 42.942 6.06844 43.9388 6.06844C44.2435 6.06844 44.3868 5.93424 44.3868 5.68859M34.1771 14.4842C33.1356 15.0665 32.2485 15.3803 31.2495 15.3803C29.9929 15.3803 29.256 14.955 29.256 13.3333V13.0649C29.256 11.4727 29.9503 10.8722 32.5733 10.8722H34.1771V14.4842ZM36.0856 16.388V8.57494C36.0856 5.93422 34.8715 4.36707 31.8565 4.36707C30.7301 4.3592 29.6054 4.45666 28.4966 4.65822C28.1942 4.70371 28.0486 4.83791 28.0486 5.08356V5.86601C28.0486 6.15715 28.2435 6.22537 28.4384 6.22537H28.5414C29.6424 6.10461 30.7491 6.04462 31.8565 6.04567C33.5477 6.04567 34.1771 6.69391 34.1771 8.57494V9.47112H32.5733C28.7139 9.47112 27.3475 10.6789 27.3475 13.0967V13.3651C27.3475 16.1628 29.0387 16.9907 30.8822 16.9907C32.0962 16.9907 33.1804 16.5221 34.2197 15.8944V16.388C34.2196 16.5063 34.265 16.62 34.3461 16.7049C34.4272 16.7898 34.5378 16.8393 34.6542 16.8429H35.651C35.7675 16.8393 35.878 16.7898 35.9591 16.7049C36.0403 16.62 36.0856 16.5063 36.0856 16.388ZM24.8343 16.388V8.4635C24.8343 5.35195 23.2663 4.34434 21.3221 4.34434C20.0713 4.37793 18.8428 4.68843 17.7225 5.25414C17.1826 4.60363 16.4883 4.34434 15.5564 4.34434C14.3625 4.34434 13.2583 4.83791 12.3914 5.39744V4.97211C12.395 4.91446 12.3871 4.85665 12.3682 4.80218C12.3492 4.74772 12.3196 4.69774 12.2811 4.65522C12.2425 4.61271 12.1959 4.57857 12.1441 4.55485C12.0922 4.53113 12.0361 4.51831 11.9792 4.5172H10.8951C10.8381 4.51799 10.7819 4.53057 10.7299 4.55418C10.6779 4.5778 10.6311 4.61195 10.5926 4.65453C10.554 4.69711 10.5244 4.74724 10.5055 4.80185C10.4867 4.85646 10.479 4.91438 10.483 4.97211V16.388C10.4768 16.4427 10.4815 16.498 10.4969 16.5508C10.5123 16.6036 10.538 16.6527 10.5725 16.6952C10.607 16.7376 10.6496 16.7726 10.6977 16.798C10.7458 16.8234 10.7985 16.8386 10.8525 16.8429H11.9994C12.0546 16.8394 12.1087 16.8248 12.1583 16.8C12.208 16.7753 12.2524 16.7407 12.2888 16.6984C12.3253 16.6561 12.3531 16.6069 12.3707 16.5536C12.3883 16.5003 12.3953 16.444 12.3914 16.388V6.94185C13.3008 6.47102 14.255 6.06844 15.0345 6.06844C16.1545 6.06844 16.7055 6.47102 16.7055 8.41802V16.3788C16.699 16.4334 16.7035 16.4888 16.7186 16.5416C16.7337 16.5943 16.7592 16.6435 16.7935 16.686C16.8279 16.7285 16.8703 16.7635 16.9183 16.7889C16.9663 16.8143 17.0189 16.8295 17.0729 16.8338H18.222C18.2771 16.8303 18.3311 16.8157 18.3806 16.7909C18.4302 16.7661 18.4744 16.7315 18.5107 16.6892C18.5469 16.6468 18.5746 16.5976 18.5919 16.5443C18.6093 16.4911 18.616 16.4348 18.6117 16.3788V8.41802C18.6215 7.83038 18.5559 7.24394 18.4169 6.67345C19.2636 6.33682 20.173 6.06844 20.9547 6.06844C22.0747 6.06844 22.9259 6.58246 22.9259 8.4635V16.388C22.9258 16.5063 22.9712 16.62 23.0523 16.7049C23.1334 16.7898 23.2439 16.8393 23.3604 16.8429H24.3998C24.5162 16.8393 24.6267 16.7898 24.7079 16.7049C24.789 16.62 24.8344 16.5063 24.8343 16.388ZM7.9339 13.7427C7.9339 12.4235 7.34927 11.4682 5.55059 10.3627L3.40248 9.04351C2.4057 8.43849 1.90843 8.01315 1.90843 7.34217C1.90843 6.20491 2.71034 6.0434 3.92439 6.0434C5.13844 6.0434 6.52497 6.15486 7.28431 6.22309H7.34927C7.39965 6.22874 7.45063 6.22264 7.49835 6.2053C7.54607 6.18795 7.58928 6.1598 7.62468 6.12297C7.66009 6.08614 7.68677 6.04162 7.7027 5.99275C7.71863 5.94389 7.72339 5.892 7.71662 5.84099V5.10405C7.72059 5.04632 7.71291 4.98837 7.69407 4.93376C7.67522 4.87916 7.64561 4.82902 7.60703 4.78644C7.56845 4.74386 7.52171 4.70974 7.46969 4.68612C7.41767 4.66251 7.36145 4.64993 7.30447 4.64914C6.188 4.45448 5.05719 4.35707 3.92439 4.358C1.68444 4.358 0 5.00623 0 7.33534C0 8.74554 0.895978 9.70766 2.21083 10.5356L4.4015 11.8798C5.63571 12.6395 6.02546 13.0649 6.02546 13.7359C6.02546 14.9459 5.28852 15.328 3.87959 15.328C2.7421 15.3038 1.60652 15.2218 0.477108 15.0824H0.38975C0.342125 15.077 0.293929 15.0816 0.24812 15.0959C0.202311 15.1102 0.159855 15.1338 0.123358 15.1653C0.0868615 15.1968 0.057094 15.2356 0.035881 15.2792C0.014668 15.3228 0.00245802 15.3704 0 15.419V16.2014C0 16.4471 0.172476 16.5813 0.44799 16.6563C1.50972 16.9247 3.07097 16.9907 3.87287 16.9907C6.30097 16.9907 7.92718 16.0286 7.92718 13.745" fill="#021F53"/>
</svg>
