<svg width="93" height="93" viewBox="0 0 93 93" fill="none" xmlns="http://www.w3.org/2000/svg">
<path d="M29.4422 35.6643V31.2318C29.4422 29.8528 28.8512 28.9663 27.3737 28.9663H24.2217V38.2253H27.1767C28.6542 38.1268 29.4422 37.3388 29.4422 35.6643Z" fill="white"/>
<path d="M66.0841 29.1636H63.3262V50.4395H66.0841C68.2511 50.4395 69.2362 49.2575 69.2362 46.992V32.6111C69.1377 30.4441 68.2511 29.1636 66.0841 29.1636Z" fill="white"/>
<path d="M44.1189 69.0559C43.3309 69.4499 42.9368 68.5634 42.9368 68.5634C42.8383 68.2679 43.0353 68.2679 43.0353 68.1694C43.0353 67.8739 42.9369 67.7754 42.8384 67.7754C42.6414 67.7754 42.4443 68.0709 42.4443 68.0709C41.7548 68.8589 41.7549 69.8439 41.7549 69.8439C41.7549 70.4349 41.9518 70.5334 41.9518 70.5334C42.6413 71.0259 43.5278 70.0409 43.9218 69.5484C44.0203 69.4499 44.1189 69.2529 44.1189 69.0559Z" fill="white"/>
<path d="M35.5488 71.4198C35.5488 72.3063 36.6323 71.7154 36.6323 71.7154C36.8293 71.5184 36.9278 71.4199 37.0263 71.3214C37.1248 71.2229 37.1249 71.1243 37.2234 71.0258C37.2234 70.3363 37.5188 69.4498 37.6173 69.0558C37.6173 69.0558 37.6173 68.9573 37.5188 68.9573C37.4203 68.8588 37.4204 68.6618 37.3219 68.4648C37.2234 68.4648 37.2233 68.4648 37.1248 68.4648C36.3368 69.1543 35.8444 70.4348 35.8444 70.4348C35.6474 70.9273 35.5488 71.4198 35.5488 71.4198Z" fill="white"/>
<path d="M75.0473 47.2877C75.0473 52.3112 71.9939 55.4632 66.4779 55.4632H57.416V24.1402H66.4779C71.9939 24.1402 75.0473 27.6862 75.0473 32.6112V47.2877ZM68.0539 71.7156C68.0539 71.7156 67.5615 71.7156 67.266 70.7306C67.266 70.7306 66.3794 68.7606 66.4779 68.0711C66.3794 68.1696 65.9854 68.7607 65.6899 69.3516C65.4929 69.7456 65.4929 69.8441 65.1974 70.2381C65.0989 70.4351 65.0005 70.5336 64.8035 70.6321C63.72 71.6171 63.6214 70.3366 63.6214 70.3366C63.3259 69.2531 63.9169 67.4801 63.9169 67.4801C64.3109 66.1996 64.9019 66.7906 64.9019 66.7906C65.7884 66.9876 65.3944 67.8742 65.3944 67.8742C65.1974 68.4652 65.0004 68.3667 65.0004 68.3667C64.8034 68.4652 64.7049 68.7606 64.7049 68.9576C64.7049 68.9576 64.6064 69.6471 64.9019 69.1546C65.0989 68.6621 65.5914 67.8741 65.8869 67.6771C65.8869 67.6771 66.3794 67.1846 66.6749 67.5786C66.6749 67.5786 67.8569 69.9426 68.3494 70.2381C68.5464 70.1396 70.5164 71.8141 68.0539 71.7156ZM65.296 73.3901C65.0005 73.4886 64.8034 73.4886 64.6064 73.4886C64.3109 73.4886 63.6214 73.4886 63.6214 73.0946C63.6214 72.8976 63.1289 72.8976 62.9319 72.8976C62.3409 72.8976 62.4394 72.7006 62.5379 72.5036C62.6364 72.4051 62.7349 72.3066 63.0304 72.3066C63.5229 72.3066 64.1139 72.3066 64.9019 72.4051C65.2959 72.4051 65.9854 72.4051 66.0839 72.7006C66.1824 72.9961 65.887 73.1931 65.296 73.3901ZM61.7499 69.7456C61.4544 69.7456 61.0604 70.2381 61.0604 70.2381C60.3709 70.8291 59.4844 70.8291 59.4844 70.8291C58.4995 70.8291 58.5979 70.0411 58.5979 70.0411C58.5979 69.1546 60.371 66.4951 60.371 66.4951C60.8635 65.9041 61.1589 66.1996 61.1589 66.1996C61.1589 66.1996 61.2575 66.1996 61.356 66.1996C61.947 66.1011 61.4544 66.6921 61.4544 66.6921C60.9619 67.3816 60.4694 68.6621 60.4694 68.6621C60.3709 68.9576 60.2724 69.4501 60.2724 69.4501C60.0754 70.2381 60.8635 69.6471 60.8635 69.6471C60.962 69.5486 61.0604 69.4501 61.1589 69.3516C61.2574 69.2531 61.356 69.2531 61.356 69.2531C61.553 69.2531 61.2574 68.3667 61.2574 68.3667L61.1589 67.9726C61.0604 67.4801 61.356 67.4801 61.356 67.4801C61.6515 67.2831 61.8485 67.7756 61.8485 67.7756C62.144 68.1696 62.341 69.0561 62.341 69.0561C62.341 69.7456 61.7499 69.7456 61.7499 69.7456ZM61.8485 72.6021C61.6515 72.8976 61.356 72.8976 60.8635 72.8976C60.8635 72.8976 60.6664 72.8976 59.9769 72.8976C59.9769 72.8976 61.7499 73.5871 54.8549 73.3901C54.8549 73.3901 55.4459 73.9811 52.8849 73.8826C52.8849 73.8826 46.7779 73.5871 34.564 75.6556C34.958 76.2466 35.2534 76.6406 35.1549 76.7391C34.8594 77.0346 33.6775 76.1481 33.382 75.8526C32.791 75.9511 32.2 76.0496 31.609 76.1481C31.609 76.1481 30.5256 76.3451 30.8211 75.9511C30.9195 75.8526 30.9195 75.7541 31.3135 75.6556C31.3135 75.6556 31.806 75.4586 32.6924 75.2616C30.427 73.0946 29.3435 70.6321 29.048 69.9426C29.048 69.8441 29.1465 69.7456 29.1465 69.7456C29.245 69.6471 29.3435 69.5486 29.7375 69.5486C29.5405 69.4501 29.442 69.4501 29.442 69.3516C29.442 69.2531 29.8361 69.2531 29.8361 69.2531C30.1316 69.2531 30.3286 69.2531 30.3286 69.2531C30.8211 69.1546 31.018 69.1546 31.018 69.1546C32.003 68.9576 32.2985 68.5636 32.2985 68.5636C33.2835 67.6771 31.806 66.6921 31.806 66.6921C28.0631 64.5251 25.0095 65.5101 25.0095 65.5101C24.8125 65.5101 24.714 65.6086 24.517 65.5101C24.123 65.3131 24.8125 64.8207 24.8125 64.8207C26.684 63.2447 27.669 63.7372 27.669 63.7372C31.3135 63.9342 32.8895 65.9042 32.8895 65.9042C34.17 67.2832 33.7759 68.2681 33.6774 68.6621C33.0864 69.8441 31.609 69.8441 31.609 69.8441H31.018C31.215 70.0411 31.3135 70.3366 31.3135 70.3366C31.5105 71.0261 33.2835 73.7841 34.0715 74.8676C38.701 73.6856 48.7479 71.5186 61.1589 72.2081C61.1589 72.2081 62.144 72.2081 61.8485 72.6021ZM24.123 55.4632H18.3115V24.1402H27.9645C32.2 24.1402 35.1549 26.6028 35.1549 30.9368V35.3692C35.1549 37.7332 34.0715 39.5062 31.609 40.1957C34.0715 40.8852 35.2535 42.9537 35.2535 44.9237V50.6367C35.2535 52.1142 35.6475 53.0992 36.337 53.7887V55.5617H32.791C30.5256 55.5617 29.639 53.6902 29.639 50.9322V45.0222C29.639 43.5447 28.851 42.3627 27.275 42.3627H24.2215V55.4632H24.123ZM36.8295 67.7756C36.928 67.7756 36.928 67.7756 36.928 67.7756C37.0265 67.7756 37.1249 67.7757 37.1249 67.8742C37.4204 67.9727 37.5189 68.2681 37.6174 68.4651C38.1099 66.6921 38.504 67.8742 38.504 67.8742C39.489 68.0712 38.9965 68.5636 38.9965 68.5636C38.898 68.9576 38.7995 69.2531 38.7995 69.2531C38.701 69.5486 38.307 70.7306 38.307 70.7306C38.307 70.8291 38.307 71.0261 38.307 71.0261C38.307 71.4201 38.504 71.2231 38.504 71.2231C38.504 71.1246 38.701 71.1246 38.7995 71.0261C38.7995 71.0261 38.898 70.9276 38.9965 70.9276C39.292 70.7306 39.686 70.5336 39.686 70.6321V70.7306C39.686 71.0261 38.9965 71.5186 38.9965 71.5186C38.9965 71.6171 38.9965 71.6171 38.9965 71.6171C38.9965 71.6171 38.898 71.6171 38.898 71.8141C38.898 72.2081 37.913 72.5036 37.913 72.5036H37.8145C37.519 72.5036 37.322 72.4051 37.322 72.3066C37.125 72.2081 37.1249 72.0111 37.1249 72.0111V71.9126C37.1249 71.8141 37.125 71.7156 37.0265 71.6171C36.8295 71.9126 36.6324 72.1096 36.6324 72.1096C35.9429 72.7991 35.0565 72.7006 35.0565 72.7006C34.367 72.7006 34.1699 71.9126 34.1699 71.9126C33.7759 70.4351 35.352 68.5636 35.8445 67.9726C36.337 67.6771 36.8295 67.7756 36.8295 67.7756ZM43.1335 71.3216C40.474 72.7991 40.474 70.7306 40.474 70.7306C40.3755 69.8441 40.7695 68.7606 40.7695 68.7606C41.3605 67.1846 42.4439 66.7906 42.4439 66.7906C43.2319 66.4952 44.0199 67.4801 44.0199 67.4801C44.1184 67.5786 44.217 67.7757 44.217 67.8742C44.611 64.6237 44.5124 62.0626 44.5124 62.0626C44.4139 60.7821 45.202 61.8657 45.202 61.8657C46.778 63.7372 46.0885 64.7221 46.0885 64.7221C45.99 66.6921 44.1185 71.5186 44.1185 71.5186C43.9215 72.1096 43.823 72.1096 43.7245 72.1096C43.429 71.9126 43.5274 71.4201 43.5274 71.4201C43.5274 71.1246 43.626 70.9276 43.7245 70.7306C43.429 71.1246 43.1335 71.3216 43.1335 71.3216ZM51.0135 67.9726C51.0135 67.9726 49.9299 69.1546 49.3389 69.8441C47.3689 71.8141 46.9749 71.1246 46.9749 71.1246C46.1869 70.0411 46.778 67.6771 46.778 67.6771C47.0735 66.3966 47.763 66.8892 47.763 66.8892C48.748 67.0862 48.3539 67.8742 48.3539 67.8742C48.2554 68.4652 48.0585 68.4651 48.0585 68.4651C47.763 68.6621 47.6645 69.7456 47.6645 69.7456C47.763 70.3366 47.2705 71.1246 48.748 69.8441C49.142 69.4501 50.915 67.4801 51.112 66.6921C51.112 66.6921 51.4074 65.9042 51.8014 66.7906C51.8014 66.7906 53.2789 68.3666 53.2789 69.5486C53.2789 69.5486 53.0819 71.1246 50.4224 71.0261C50.4224 71.0261 49.8314 70.9276 50.4224 70.5336C50.4224 70.5336 52.097 69.9426 51.0135 67.9726ZM39.686 24.1402H54.6579V29.1637H45.4974V36.9452H51.8014V41.5747H45.4974V50.2427H54.6579V55.4632H39.686V24.1402ZM55.446 66.3967C55.643 65.8057 56.431 65.3132 56.5295 65.8057C56.5295 66.0027 56.3324 66.1997 56.2339 66.2982C55.9384 66.6921 56.3324 67.3816 56.6279 67.5786C57.1204 67.8741 57.8099 68.5636 57.7114 69.2531C57.7114 69.2531 57.5144 70.8291 54.8549 70.7306C54.8549 70.7306 54.5595 70.7306 54.5595 70.5336C54.5595 70.4351 54.6579 70.3366 54.8549 70.2381C54.8549 70.2381 56.5295 69.7456 55.446 67.6771C55.446 67.6771 55.052 67.9726 54.461 68.4651C54.461 68.4651 54.067 68.9576 54.067 68.2681C54.067 68.2681 54.1654 67.8741 54.2639 67.7756C54.1654 67.7756 55.1505 67.2832 55.446 66.3967ZM0.286133 92.1051H92.3834V0.0078125H0.286133V92.1051Z" fill="white"/>
</svg>
